<svg xmlns="http://www.w3.org/2000/svg" xmlns:xlink="http://www.w3.org/1999/xlink" viewBox="0 0 400 400"><defs><style>.cls-1{isolation:isolate;}.cls-2{fill:url(#未命名的渐变_110);}.cls-3{fill:url(#未命名的渐变_110-2);}.cls-4{fill:url(#未命名的渐变_110-3);}.cls-5{fill:url(#未命名的渐变_110-4);}.cls-6{fill:#f76387;}.cls-7{fill:#d95a4d;}.cls-8{fill:#6d554b;}.cls-11,.cls-9{mix-blend-mode:multiply;}.cls-10,.cls-11{fill:#558e5c;}.cls-11{opacity:0.5;}.cls-12{fill:#fff;}</style><linearGradient id="未命名的渐变_110" x1="219.51" y1="153.51" x2="237.8" y2="153.33" gradientUnits="userSpaceOnUse"><stop offset="0" stop-color="#55a65a"/><stop offset="1" stop-color="#91d996"/></linearGradient><linearGradient id="未命名的渐变_110-2" x1="213.9" y1="153.61" x2="221.39" y2="169.29" xlink:href="#未命名的渐变_110"/><linearGradient id="未命名的渐变_110-3" x1="192.34" y1="150.59" x2="172.83" y2="149.03" xlink:href="#未命名的渐变_110"/><linearGradient id="未命名的渐变_110-4" x1="199.2" y1="154.49" x2="176.72" y2="161.28" xlink:href="#未命名的渐变_110"/></defs><title>元素整理</title><g class="cls-1"><g id="图层_7" data-name="图层 7"><path class="cls-2" d="M222.19,151.73a12.86,12.86,0,0,0,18.11-4.79,9.74,9.74,0,0,1-2.44,7.59,16.62,16.62,0,0,1-6.79,4.48c-3,1.15-8.52,1.29-10.66-1.14a41,41,0,0,1-.34-5.07c.3-.17.61-.32.91-.48s.79-.44,1.17-.66Z"/><path class="cls-3" d="M225,173.11a10.09,10.09,0,0,0-4-5.69,54.74,54.74,0,0,0-6.17-3.58,13.67,13.67,0,0,1-3.22-2.33,6.27,6.27,0,0,1-1-1.37,6.37,6.37,0,0,1-.66-4.28v0a31.28,31.28,0,0,0,10.26-3,41,41,0,0,0,.34,5.07,13.19,13.19,0,0,0,2.57,6.6c.93,1.13,2.13,2.11,2.63,3.49C226.19,169.63,225.57,171.46,225,173.11Z"/><path class="cls-4" d="M192.37,151.57a67.24,67.24,0,0,1-5.88,5.11c-2.82.72-8.19,0-10-2-1.42-1.52-2.12-3.55-3-5.43a31.82,31.82,0,0,0-4.88-7.62c.67-.22,1.34.3,1.88.76,3.89,3.31,8.61,5.45,13.25,7.55a13.1,13.1,0,0,0,2.73,1,12.43,12.43,0,0,0,4.81-.27C191.64,151,192,151.3,192.37,151.57Z"/><path class="cls-5" d="M204.49,156c-1.29.56-3,1.37-4.59,2.16s-3,1.44-4.18,2a39.12,39.12,0,0,1-5.13,1.93c-5.28,1.43-10.75.47-16.06-1.16a15.64,15.64,0,0,0,6.24-.93,22.25,22.25,0,0,0,5.72-3.3,67.24,67.24,0,0,0,5.88-5.11,25.08,25.08,0,0,0,6.89,3.5l.18-.07.09.22a28.71,28.71,0,0,0,5,.75Z"/><ellipse class="cls-6" cx="219.64" cy="87.81" rx="5.1" ry="6.12"/><path class="cls-6" d="M211.37,87.19c0,2.21-2.67,2-6,2s-4.67-1.8-4.67-4,1.09-5.86,2.23-4.58C205.49,83.38,211.37,85,211.37,87.19Z"/><path class="cls-6" d="M204.43,81.48a10.34,10.34,0,0,1,6.32.31l.1.06a10.71,10.71,0,0,0-.49,1.22c-.28.82-.76,2-1.05,2.82a30.75,30.75,0,0,1-5-4.32Z"/><path class="cls-6" d="M249.62,101.78a3,3,0,0,1-.31,2.08,66.65,66.65,0,0,1-8.51-3.28c-2.84-1.21-5.5-2.9-8.46-3.77a10.06,10.06,0,0,0,1.4-4.57l.33,0a14.26,14.26,0,0,1,9.53,1.89A14.11,14.11,0,0,1,249.62,101.78Z"/><path class="cls-6" d="M232.16,85.67a11,11,0,0,1,.18,11.14l-.58-.15a15.69,15.69,0,0,0-6.75-.13c-.76-3.2-3.71-6.4-6.7-7.91a16.34,16.34,0,0,0,3-.63,22.27,22.27,0,0,0,3.23-1.26,17.46,17.46,0,0,0,2.59-1.48,4.63,4.63,0,0,1,2.47-1.2A3.41,3.41,0,0,1,232.16,85.67Z"/><path class="cls-6" d="M215.75,81.34A18.7,18.7,0,0,1,221.3,88a16.34,16.34,0,0,1-3,.63,2.29,2.29,0,0,0-.31-.16,22.29,22.29,0,0,0-7.39-1.83h0a11.52,11.52,0,0,1-1.28-.74c.29-.85.77-2,1.05-2.82a10.71,10.71,0,0,1,.49-1.22,3,3,0,0,1,1.23-1.36C213.27,79.91,214.68,80.56,215.75,81.34Z"/><path class="cls-6" d="M187.38,101.43c-2.32-1.55-4.81-3-6.6-5.08s-2.73-5.28-1.44-7.75a7.53,7.53,0,0,1,4.35-3.35,13.77,13.77,0,0,1,13.13,2.46,15.22,15.22,0,0,0-3.23,1.55c-4.21,2.68-6.69,8.75-4.6,13.28h0C188.46,102.16,187.92,101.79,187.38,101.43Z"/><path class="cls-6" d="M196.82,87.71a19.8,19.8,0,0,1,4.2-1,38.25,38.25,0,0,1,7-.25c.86,0,1.71.1,2.56.18h0A22.29,22.29,0,0,1,218,88.46a2.29,2.29,0,0,1,.31.16c3,1.51,5.94,4.71,6.7,7.91a21.39,21.39,0,0,0-9.14,4.26c-4.45,3.52-7.61,8.4-10.3,13.41-.85,1.6-1.69,3.42-1.27,5.2l-.25.13a52.1,52.1,0,0,0-15.06-17h0c-2.09-4.53.39-10.6,4.6-13.28A15.22,15.22,0,0,1,196.82,87.71Z"/><path class="cls-7" d="M220.07,152.8a31.28,31.28,0,0,1-10.26,3,30.55,30.55,0,0,1-5.32.15,28.71,28.71,0,0,1-5-.75l-.09-.22c5.9-2.33,8.59-7.83,9.55-14.14s-.76-12.89-3.56-18.69q-.65-1.35-1.38-2.64l.25-.13c-.42-1.78.42-3.6,1.27-5.2,2.69-5,5.85-9.89,10.3-13.41A21.39,21.39,0,0,1,225,96.53a15.69,15.69,0,0,1,6.75.13l.58.15c3,.87,5.62,2.56,8.46,3.77a66.65,66.65,0,0,0,8.51,3.28,30.58,30.58,0,0,0,5.34,1c-6.05,1.92-10.14,7.64-12.55,13.53s-3.58,12.24-6.27,18a35.16,35.16,0,0,1-13.68,15.26c-.38.22-.77.45-1.17.66S220.37,152.63,220.07,152.8Z"/><path class="cls-7" d="M191.29,150.71a18.34,18.34,0,0,1-5.15-7.33c-2.4-6-2.93-12.67-3.21-19.18-.23-5.74-.3-11.48-.18-17.21.05-3.4-.23-7.73-2-10.64,1.79,2.13,4.28,3.53,6.6,5.08.54.36,1.08.73,1.61,1.12a52.1,52.1,0,0,1,15.06,17q.73,1.29,1.38,2.64c2.8,5.8,4.52,12.33,3.56,18.69s-3.65,11.81-9.55,14.14l-.18.07a25.08,25.08,0,0,1-6.89-3.5C192,151.3,191.64,151,191.29,150.71Z"/><path class="cls-8" d="M199.9,158.18c1.64-.79,3.3-1.6,4.59-2.16V156a30.55,30.55,0,0,0,5.32-.15v0a6.37,6.37,0,0,0,.66,4.28,6.27,6.27,0,0,0,1,1.37c1,22.1-6.53,44.47-11.1,66.13Q198,239,196.53,250.39l0,0a40.27,40.27,0,0,0-4,5.16,38.45,38.45,0,0,0-.27-13.34l.11,0c.6-5.1,1.19-9.81,1.8-14,.84-5.85,1.7-11.7,3.12-17.44,1.25-5.08,2.93-10,3.91-15.2,2.16-11.5.24-25.69-1.26-37.3Z"/><path class="cls-8" d="M193.61,335.32l.62,19.82h-7.59c-1.14-22.2.68-59,3.45-90.2l.23-.2a38.88,38.88,0,0,0,4.21,4.32C192.74,291.06,192.79,313.25,193.61,335.32Z"/><g class="cls-9"><path class="cls-8" d="M211.51,161.51a6.27,6.27,0,0,1-1-1.37,6.37,6.37,0,0,1-.66-4.28v0a30.21,30.21,0,0,1-3.56.18c3.38,12.13.66,25-1.51,37.18-2.69,15.08-6.67,28.78-9.57,43.82-.76,3.93-2.11,16.77-2.17,17.88.84-1.14,2.61-3.43,3.57-4.46l0,0Q198,239,200.41,227.64C205,206,212.52,183.61,211.51,161.51Z"/><path class="cls-8" d="M192.26,266.33c-.27,1.45-1,13.92-1.1,17.76s-1.36,38.83-1.41,46.87A197.85,197.85,0,0,0,191,355.14h3.22l-.62-19.82c-.82-22.07-.87-44.26.93-66.26C194.28,268.84,192.51,266.56,192.26,266.33Z"/></g><path class="cls-10" d="M192.26,242.24a38.45,38.45,0,0,1,.27,13.34,37,37,0,0,0-3.67,7.27c-6.62,1.17-14.88,2.36-20.34-1.56s-9.54-9.49-12.63-15.43c-8-15.34-9.68-33.22-8.87-50.48l1.19-.66c7.48,14.19,29.89,14.36,38.38,28.11,2.28,3.7,3.29,8,4.25,12.29C191.36,237.45,191.87,239.84,192.26,242.24Z"/><path class="cls-11" d="M192.26,242.24c-.39-2.4-.9-4.79-1.42-7.12-.29-1.25-.58-2.5-.9-3.75a46.21,46.21,0,0,1-.23,9.55A33,33,0,0,1,188,248a25.66,25.66,0,0,1-3.19,6.34,9.21,9.21,0,0,1-5.43,3.72,13.93,13.93,0,0,1-7.78-.92c-4.81-1.86-8.48-5.44-11.55-9.47-5.93-7.77-9.27-17.3-11.1-26.81a104.79,104.79,0,0,1-1.67-25.62l-.27.15c-.81,17.26.89,35.14,8.87,50.48,3.09,5.94,7.19,11.52,12.63,15.43s13.72,2.74,20.34,1.56a37,37,0,0,1,3.67-7.27A38.45,38.45,0,0,0,192.26,242.24Z"/><path class="cls-10" d="M221.31,238.07c12.51-1.1,24.88,4,37.43,3.44-7,7.55-8.76,12.67-16.08,19.9s-16.14,13.44-26.26,15.36c-7.47,1.43-15.67-2.29-21.87-7.71a38.88,38.88,0,0,1-4.21-4.32c-.51-.62-1-1.25-1.46-1.89a37,37,0,0,1,3.67-7.27,40.27,40.27,0,0,1,4-5.16A38.86,38.86,0,0,1,221.31,238.07Z"/><path class="cls-11" d="M253.63,246.45a49.6,49.6,0,0,0-16.19,6.72c-5.69,3.49-10.77,7.85-16.4,11.43-5.45,3.47-11.51,6.32-18.12,5.54A28.3,28.3,0,0,1,191,265.49a37.23,37.23,0,0,0,3.54,3.57c6.19,5.42,14.39,9.14,21.86,7.71,10.12-1.92,18.93-8.13,26.26-15.36,5.67-5.6,8-9.94,12-15.13C254.34,246.34,254,246.38,253.63,246.45Z"/><path class="cls-12" d="M258.94,241.43s-.07-.07-.18-.07c-12.23.52-24-4.23-36.27-3.53a39.2,39.2,0,0,0-25.34,11.73l-.32.34a347.54,347.54,0,0,1,6.67-34.73c2.75-11.43,5.7-22.85,7.26-34.52a110.29,110.29,0,0,0,1-18.61,20.54,20.54,0,0,0,4.15,2.67c3.6,1.92,7.79,4.13,8.79,8.46,0,.22.44,0,.48-.09.67-1.8,1.36-3.86.43-5.71-.78-1.53-2.24-2.58-3.14-4a13.45,13.45,0,0,1-1.73-4.88c2.2,1.81,5.78,1.75,8.39,1.26a16.28,16.28,0,0,0,5.2-2.07,13.78,13.78,0,0,0,4.59-4.2,9.69,9.69,0,0,0,1.61-6.57c0-.22-.4-.08-.47,0a12.56,12.56,0,0,1-17.69,4.68,33.81,33.81,0,0,0,6.27-4.79,37,37,0,0,0,8.57-13.2c2.14-5.53,3.3-11.42,5.8-16.8,2.37-5.13,6.16-10.09,11.72-11.89.13,0,.16-.08.13-.1s0,0-.06-.06a33,33,0,0,1-5.23-1c.81-1.36,0-3-.63-4.2a14.12,14.12,0,0,0-14.84-7.41l-.1,0a10.75,10.75,0,0,0-.89-5.38c-.65-1.37-1.86-3-3.54-2.89a4,4,0,0,0-2.08.87,21,21,0,0,1-2.56,1.59l-.21.1a6.12,6.12,0,0,0-2.34-3.9,5.36,5.36,0,0,0-5-.45.25.25,0,0,0-.13.11,8,8,0,0,0-3-1.92,2.85,2.85,0,0,0-3.42,1.19l0,.09a10.64,10.64,0,0,0-6.34-.29c-.21-.21-.42-.41-.64-.6a1.82,1.82,0,0,0-1.69-.51c-.63.23-.85,1-1,1.6a9.38,9.38,0,0,0-.32,4.67,22,22,0,0,0-3.94,1,14,14,0,0,0-7.93-3A11.87,11.87,0,0,0,180.4,87c-2.47,2.23-2.28,5.7-.63,8.37a11.1,11.1,0,0,0,.79,1.11h0c2.18,3.74,2,8.38,1.91,12.55q-.1,7.66.23,15.33a75.09,75.09,0,0,0,1.58,13.87c.9,3.88,2.29,7.74,4.94,10.78a17.25,17.25,0,0,0,1.72,1.7,14.15,14.15,0,0,1-3.37.31,9.53,9.53,0,0,1-3.21-.92c-1.94-.86-3.88-1.74-5.77-2.7a45.1,45.1,0,0,1-5.62-3.29c-.83-.58-1.61-1.22-2.4-1.86a2.23,2.23,0,0,0-2-.64s-.27.09-.2.18a31.81,31.81,0,0,1,3.83,5.52c1,1.84,1.68,3.84,2.7,5.67a6.54,6.54,0,0,0,3.05,3,13.73,13.73,0,0,0,4.42,1,13.39,13.39,0,0,0,3.63-.12c-3.36,2.43-7.11,4.16-11.37,3.9-2.07-.64-4.12-1.37-6.16-2.12-.08,0-.53.11-.42.19a12,12,0,0,0,6.25,2.15,38.73,38.73,0,0,0,9.34,1.83,22.14,22.14,0,0,0,7.42-.81,46.42,46.42,0,0,0,6.59-2.68l2-1c1.35,10.47,2.85,21.11,2,31.69-.46,5.59-2,10.94-3.47,16.32a147.86,147.86,0,0,0-3.59,17.07q-1.32,8.7-2.33,17.44c-.4-2.18-.89-4.35-1.37-6.49a44.45,44.45,0,0,0-3.05-9.7,21.83,21.83,0,0,0-4.3-6c-6.73-6.69-16.34-9.27-24.4-13.89-4.47-2.56-8.57-5.86-10.93-10.53-.07-.13-.53,0-.49.13,4.28,8.47,13.73,12.1,21.81,15.91a53.47,53.47,0,0,1,12,7.15,23.2,23.2,0,0,1,4.58,5.16,31.15,31.15,0,0,1,3.65,9.31c.95,3.8,1.81,7.66,2.38,11.54a37.07,37.07,0,0,1,.08,12.12,37.93,37.93,0,0,0-3.62,7.13c-5.27.93-11,1.88-16.25.24a18.78,18.78,0,0,1-7.17-4.69,40,40,0,0,1-4.41-5A22.52,22.52,0,0,0,173,256c.14,0,.52-.24.2-.22a22.08,22.08,0,0,1-12.86-3.18c-.22-.3-.45-.61-.66-.92a64.89,64.89,0,0,1-8.6-18.5,27.66,27.66,0,0,0,13.07,9.54c.23.08.57-.24.28-.34a27.32,27.32,0,0,1-13.75-10.61,96.06,96.06,0,0,1-2.83-14.95,138.13,138.13,0,0,1-.54-21.43c0-.23-.48-.15-.49.05-.55,12,.06,24.29,3.25,36-.09.06-.15.14-.09.24s.18.23.26.35c.14.52.29,1.05.44,1.57a68,68,0,0,0,7.63,16.94c.35.54.72,1.08,1.08,1.61-.16,0-.36.14-.3.18.25.17.51.31.77.47a42.74,42.74,0,0,0,4.1,4.9,22.64,22.64,0,0,0,6.81,5.13c5.6,2.41,12.18,1.31,18,.29.44.61.91,1.2,1.39,1.79-.12,0-.24.07-.25.14q-1.67,18.9-2.68,37.85c-.63,11.91-1.08,23.83-1.1,35.76,0,5.54.06,11.09.34,16.62,0,.05.11.05.14.05h7.59c.1,0,.35-.05.34-.18l-.57-18.25c-.42-13.39-.75-26.77-.49-40.17.18-9,.6-18.1,1.33-27.13a36.75,36.75,0,0,0,6.68,4.54c4.81,2.54,10.23,3.83,15.62,2.71a44.79,44.79,0,0,0,16.28-7.32A68.7,68.7,0,0,0,246.9,257c.1-.11.19-.23.28-.34s.33.05.5.06.51-.26.18-.29l-.45-.05c1.78-2.21,3.41-4.53,5.07-6.84a83.52,83.52,0,0,1,6.48-8.07S259,241.44,258.94,241.43Zm-34.07-74.38c1.09,1.66.72,3.53.12,5.28-1.16-3.54-4.56-5.67-7.71-7.35a24.3,24.3,0,0,1-5.25-3.27,6.4,6.4,0,0,1-2-5.87,32.17,32.17,0,0,0,9.77-2.89,43.46,43.46,0,0,0,.33,5h0a15,15,0,0,0,1.54,5C222.53,164.5,223.91,165.58,224.87,167.05ZM222,151.88a13.15,13.15,0,0,0,18.12-4.23c.48,7.44-8.29,12.52-15,11.93a6.84,6.84,0,0,1-4.53-1.81,43.21,43.21,0,0,1-.32-5.05c.55-.28,1.11-.58,1.65-.89Zm12-59.49a14,14,0,0,1,11,3,14.18,14.18,0,0,1,3.35,4.08c.64,1.18,1.49,2.81.81,4.14l-.71-.2c-1.89-.6-3.72-1.37-5.55-2.15-2.12-.91-4.18-1.9-6.26-2.91a26.48,26.48,0,0,0-4.07-1.65A10.5,10.5,0,0,0,234,92.39Zm-6.56-7.23c1-.74,2.08-1.35,3.27-.57a5.34,5.34,0,0,1,1.74,2.06,10,10,0,0,1,1.07,4.69,10.66,10.66,0,0,1-1.34,5.3,12.35,12.35,0,0,0-1.49-.33,16.32,16.32,0,0,0-5.49.1c-.79-3.27-3.65-6.23-6.33-7.76a19.6,19.6,0,0,0,5.62-1.75.35.35,0,0,0,.2-.1A19.77,19.77,0,0,0,227.47,85.16Zm-9.89-2.74a4.7,4.7,0,0,1,4.67.62,6.06,6.06,0,0,1,2,3.67,21.72,21.72,0,0,1-2.78,1.1,17.55,17.55,0,0,0-3-4.33q-.48-.53-1-1A.23.23,0,0,0,217.58,82.42Zm-4.72-2a4,4,0,0,1,2.35.82A17.07,17.07,0,0,1,221,87.94a17.53,17.53,0,0,1-2.45.52l-.45-.23a22.68,22.68,0,0,0-7.5-1.85c-.35-.18-.7-.38-1-.59.42-1.21.86-2.45,1.36-3.63C211.29,81.33,211.85,80.46,212.86,80.39Zm-2.27,1.55A16.71,16.71,0,0,0,210,83.6c-.24.65-.5,1.3-.74,2a18.55,18.55,0,0,1-1.8-1.37c-.61-.53-1.2-1.09-1.78-1.66-.32-.31-.62-.63-.93-1A10.12,10.12,0,0,1,210.59,81.94Zm-9.13.12a6.25,6.25,0,0,1,.41-1c.33-.68.87-.51,1.37-.15a13.87,13.87,0,0,1,1.52,1.45A27.68,27.68,0,0,0,209.05,86l0,.07c0,.07.1.08.23.06l.29.18-1.49-.09a39.76,39.76,0,0,0-6.82.21A9,9,0,0,1,201.46,82.06ZM200.82,87a.2.2,0,0,1,0,.07c.06.24.54.11.48-.13h0A38.62,38.62,0,0,1,208,86.7c.85,0,1.74.1,2.65.19a8.93,8.93,0,0,0,.9.37A.31.31,0,0,0,212,87a20.76,20.76,0,0,1,5.93,1.65c2.78,1.29,6,4.38,6.85,7.8a21,21,0,0,0-5.47,2A28.1,28.1,0,0,0,210,106.7a53.74,53.74,0,0,0-3.77,5.87c-1.07,1.91-2.47,4.08-2.25,6.35a52.73,52.73,0,0,0-10.77-13.25,46.36,46.36,0,0,0-4-3.16s0-.05,0-.08c-1.91-4.15.2-10.2,4.51-13a15.57,15.57,0,0,1,3.07-1.5l.09.08c.12.1.57-.08.45-.19l-.07-.06A21.15,21.15,0,0,1,200.82,87ZM179,91.79c-.48-4.35,3.67-6.63,7.43-7.05a13.59,13.59,0,0,1,9.88,2.88,16.43,16.43,0,0,0-2.88,1.43c-4.81,3.07-6.35,9-4.93,13-1.17-.82-2.35-1.61-3.55-2.41C182.19,97.74,179.42,95.33,179,91.79Zm11.15,57.54c-2.79-2.94-4.27-6.71-5.25-10.59a70.69,70.69,0,0,1-1.71-14q-.35-7.59-.26-15.17c0-3.94.3-8.26-1.26-12a49.16,49.16,0,0,0,6.06,4.29c.35.24.68.5,1,.75a.24.24,0,0,0,.15.11,52.44,52.44,0,0,1,13.15,13.91c4,6.28,7.15,13.74,6.93,21.32-.18,5.94-2.31,12.72-7.68,15.93a13.66,13.66,0,0,1-2,1,24.27,24.27,0,0,1-7.74-4.21c.07-.07.08-.15-.12-.11h0A17.27,17.27,0,0,1,190.17,149.33Zm-7.47,7.46a13.5,13.5,0,0,1-4.34-1,6.8,6.8,0,0,1-3.2-3.4c-.9-1.74-1.56-3.59-2.51-5.31a32.58,32.58,0,0,0-3.66-5.29,3.15,3.15,0,0,1,1.37.84c.41.35.84.69,1.28,1,.81.61,1.65,1.18,2.51,1.71a83.64,83.64,0,0,0,11.06,5.45,11.18,11.18,0,0,0,5.91.06c.32.28.65.53,1,.78a60.53,60.53,0,0,1-5.69,5A11.37,11.37,0,0,1,182.7,156.79ZM170,159.55c1,.35,1.94.68,2.92,1A11.48,11.48,0,0,1,170,159.55Zm22.57,1.79c-5.16,1.91-10.58,1.44-15.81,0-.4-.1-.79-.22-1.18-.33a16.43,16.43,0,0,0,2.53-.25,20.39,20.39,0,0,0,8.55-4.06l.29-.07c.23-.08.23-.21.07-.21l.8-.62c1.58-1.27,3.08-2.64,4.55-4a25.75,25.75,0,0,0,6.78,3.43.34.34,0,0,0,.34-.12,14,14,0,0,0,6.23-4.79,20.27,20.27,0,0,0,3.22-7.71c1.53-7.24-.26-14.54-3.5-21.05-.34-.7-.71-1.39-1.09-2.07.12,0,.23-.1.22-.16-.46-2.19.76-4.25,1.78-6.1a60.93,60.93,0,0,1,3.28-5.36,29.75,29.75,0,0,1,8.65-8.59,20.35,20.35,0,0,1,6.58-2.6.22.22,0,0,0,.24.09.25.25,0,0,0,.16-.17,15.53,15.53,0,0,1,5.18-.07,22.12,22.12,0,0,1,6.2,2.23c1.83.9,3.66,1.78,5.54,2.58a63,63,0,0,0,5.94,2.32c.33.11.67.2,1,.29h0a33.89,33.89,0,0,0,5.11,1c-4.28,1.5-7.57,4.8-9.92,8.61-2.91,4.72-4.29,10.13-5.94,15.37s-3.73,10.23-7.16,14.57a33.6,33.6,0,0,1-10.93,9.07v-.12c0-.22-.49-.13-.49.05s0,.21,0,.31c-.3.14-.59.3-.9.44a30.55,30.55,0,0,1-9.07,2.47h0a29.18,29.18,0,0,1-10.07-.6c-.11,0-.53.15-.4.19a30.25,30.25,0,0,0,4.88.72C200.31,157.75,196.56,159.84,192.54,161.34Zm0,80.94a.14.14,0,0,0,.08-.09q1-8.34,2.17-16.63a150.58,150.58,0,0,1,3.41-17.37c1.47-5.46,3.19-10.86,3.81-16.51a88.36,88.36,0,0,0,.11-15.77c-.4-5.92-1.17-11.8-1.93-17.68,0,0,0,0-.06-.06,1.47-.71,3-1.42,4.44-2.08,0,0,0,0,.06,0a30,30,0,0,0,4.93-.14,6.52,6.52,0,0,0,1.48,5.44c.07.08.16.14.23.22h0c.51,11.65-1.31,23.25-3.76,34.61s-5.58,22.69-7.88,34.14c-1.34,6.66-2.44,13.37-3.34,20.1,0,0,0,0,0,0a38.89,38.89,0,0,0-3.42,4.26A39.61,39.61,0,0,0,192.54,242.28Zm.36,75.54c.14,9.5.51,19,.81,28.47q.14,4.36.28,8.73h-6.77a3,3,0,0,1-.44,0c.07,0,.08-.44.08-.49s0-.3,0-.45c0-.34,0-.67-.05-1-.26-6.1-.29-12.22-.23-18.33.07-7.1.28-14.21.58-21.3q.47-11.56,1.23-23.1.74-11.36,1.71-22.7c.07-.86.15-1.72.23-2.58a38.32,38.32,0,0,0,4,4.08C193,285.34,192.65,301.59,192.9,317.82Zm55.25-62.91c-.37.49-.76,1-1.15,1.45a21.26,21.26,0,0,1-10.29-4.25c-.14-.11-.59.08-.44.19a21.67,21.67,0,0,0,10.5,4.35,69,69,0,0,1-7.73,7.94.29.29,0,0,0-.18,0c-4.57,2.36-9.63.1-13.87-1.89-.19-.09-.55.19-.28.32,4.15,1.95,9,4,13.52,2.23-.93.79-1.87,1.56-2.83,2.3a47.81,47.81,0,0,1-15.83,8.32,21.83,21.83,0,0,1-8.42.94,25.22,25.22,0,0,1-7.87-2.27,36.94,36.94,0,0,1-14.17-11.77,38.77,38.77,0,0,1,18.66-20.65,37.19,37.19,0,0,1,13.51-3.94c6-.53,12.08.41,18,1.42,5.62,1,11.27,2,17,2.07-7.84,1.64-14.86,5.63-21.58,9.83-7.34,4.58-14.62,9.48-23,12A31.73,31.73,0,0,1,197,264.79c-.1,0-.51.16-.4.18,8.35,1.44,16.69-1.18,24.09-4.9,7.62-3.82,14.46-9,22-13a50.72,50.72,0,0,1,13.74-5.26.49.49,0,0,0,.24-.12q.88,0,1.77,0a81.48,81.48,0,0,0-5.58,6.86C251.24,250.65,249.75,252.82,248.15,254.91Z"/><path class="cls-12" d="M155.22,209.14c0-.17-.5-.07-.48.13a61.2,61.2,0,0,0,5.85,21.94,63.51,63.51,0,0,0,13.18,18.32,60.09,60.09,0,0,0,10.07,7.84c.15.09.59-.11.38-.24a61.08,61.08,0,0,1-16.61-15.27,63.5,63.5,0,0,1-10.14-20.19A60,60,0,0,1,155.22,209.14Z"/><path class="cls-12" d="M182.34,249.06a58.12,58.12,0,0,0,1-21.39c0-.16-.51,0-.49.13a57.47,57.47,0,0,1-1,21.31C181.81,249.3,182.3,249.22,182.34,249.06Z"/><path class="cls-12" d="M171.68,240a53.19,53.19,0,0,0,1.64-18.88c0-.21-.51-.1-.49.13A52.69,52.69,0,0,1,171.19,240C171.13,240.22,171.62,240.17,171.68,240Z"/><path class="cls-12" d="M163.53,226.46a51.52,51.52,0,0,0,1.92-13.18c0-.24-.49-.16-.49,0a52.09,52.09,0,0,1-1.91,13.19C163,226.72,163.48,226.66,163.53,226.46Z"/><path class="cls-12" d="M215.76,260.38A33.36,33.36,0,0,1,225,243.65c.11-.1-.35-.06-.44,0a33.39,33.39,0,0,0-9.26,16.78C215.25,260.59,215.73,260.51,215.76,260.38Z"/><path class="cls-12" d="M232.94,248.74a29.81,29.81,0,0,1,3.45-6c.05-.06-.18,0-.19,0a.51.51,0,0,0-.29.13,30.3,30.3,0,0,0-3.45,6C232.43,248.89,232.88,248.86,232.94,248.74Z"/><path class="cls-12" d="M205.64,266c-.07-.12-.53,0-.49.13a22.82,22.82,0,0,0,8.47,8.83c.12.07.53-.13.46-.17A22.64,22.64,0,0,1,205.64,266Z"/><path class="cls-12" d="M206.24,258.55q1.09-3.3,2.2-6.59c.09-.28-.39-.29-.47-.07q-1.09,3.3-2.2,6.59C205.68,258.76,206.17,258.77,206.24,258.55Z"/></g></g></svg>