<?xml version="1.0" encoding="utf-8"?>
<!-- Generator: Adobe Illustrator 24.1.1, SVG Export Plug-In . SVG Version: 6.00 Build 0)  -->
<svg version="1.1" id="图层_1" xmlns="http://www.w3.org/2000/svg" xmlns:xlink="http://www.w3.org/1999/xlink" x="0px" y="0px"
	 viewBox="80 350 300 300" style="enable-background:new 0 0 800 800;" xml:space="preserve">
<style type="text/css">
	.st0{fill:#F2BCD5;}
	.st1{fill:#E49CC2;}
	.st2{fill:#E7ACCC;}
</style>
<path class="st0" d="M361.7,516.5c2,9.8,0.4,19.7,0,29.5c-13.2,35.3-42.9,49.8-75.9,59.6c-24.2,7.1-48.7,13.4-74.4,9.8
	c-2-0.3-4.2-0.5-6-1.4c-34.5-17.2-74.8-15-109.3-32.3c-4-2-9.1,0.2-13.7-4.3c26.7-12.1,36.2-36.7,45.9-61.2
	c5.4-13.7,14.5-24.6,25.5-34c21.2-18.1,39.7-40.7,70-44.5c14.1-1.6,28,0.5,41.8,2.7c16.3,6.8,33.5,4.8,50.4,4.6
	c24.4-0.2,25.3-0.3,26.9,23.2C344.2,486.6,357.3,499.7,361.7,516.5z"/>
<path class="st1" d="M669.3,347.7c12.8,11.1,22.2,25.1,32.8,38.2c27,56,15.7,98.5-4,137.2c-14.4,28.4-30.2,56-58,71.7
	c-2.2,1.2-4.4,2.7-7,3c-51,5.1-85.8,40.1-136.8,45.1c-5.9,0.6-8.2,7.5-17.4,5.3c11.3-36.8-7.3-76.2-25.5-115.5
	c-10.2-22-13.9-43.4-14.2-64.2c-0.5-40.3-8.5-84,15.2-113.1c11.3-13.2,26.4-21.5,41.7-29.7c22.7-4.1,36.3-20.4,51.7-34
	c22.3-19.6,23-20.5,50.6,8.6C619.9,322.9,646.6,329.5,669.3,347.7z"/>
<path class="st2" d="M339,230.3c-3.2,5.8-8,10.3-12.3,15.2c-20.4,13.6-39.3,10.7-57.6,4.2c-13.4-4.8-26.6-10.1-36.2-21
	c-0.8-0.8-1.6-1.7-2-2.8c-7.7-21-26-33.9-33.7-54.8c-0.9-2.4-4-3.1-4.1-7c16.6,3.1,31-6.3,45.4-15.5c8.1-5.2,16.6-7.6,25.2-8.6
	c16.7-1.9,34.1-7.1,48.8,1.5c6.7,4.1,11.9,10,16.9,16c4.2,9.2,12.5,14.2,19.8,20c10.6,8.4,11,8.7,1.9,21.3
	C344,208.8,344.1,220.1,339,230.3z"/>
</svg>
